<?xml version="1.0" encoding="utf-8"?>
<!-- Generator: Adobe Illustrator 19.0.0, SVG Export Plug-In . SVG Version: 6.00 Build 0)  -->
<svg version="1.1" id="Layer_1" xmlns="http://www.w3.org/2000/svg" xmlns:xlink="http://www.w3.org/1999/xlink" x="0px" y="0px"
	 viewBox="0 0 240.1 46.9" style="enable-background:new 0 0 240.1 46.9;" xml:space="preserve">
<style type="text/css">
	.st0{fill:#FFFFFF;}
</style>
<g id="XMLID_1829_">
	<g id="XMLID_184_">
		<path id="XMLID_205_" class="st0" d="M65,14.6c-4.5,0-7.8-0.3-7.8,9c0,9,3,8.7,7.8,8.7c4.8,0,7.8,0,7.8-8.7
			C72.8,14.3,69.7,14.6,65,14.6z M65,29.3c-3.7,0-4.7,0.1-4.7-5.8c0-6.9,1.5-6,4.7-6c3.2,0,4.7-0.8,4.7,6
			C69.7,29.4,68.5,29.3,65,29.3z"/>
		<path id="XMLID_204_" class="st0" d="M80.3,25.2c0-4.5,0.9-4.7,2.6-4.7c2.4,0,5.4,0.2,5.4,0.2v-2c-2.2-0.6-5-0.8-6.4-0.8
			c-2.7,0-4.7,1.2-4.7,7.3c0,6,2,7.3,4.7,7.3c2.2,0,4.5,0,6.6-0.9v-2.1c0,0-3.1,0.3-5.6,0.3C81,29.8,80.3,29,80.3,25.2z"/>
		<path id="XMLID_201_" class="st0" d="M105.1,23c0-4.7-2-5.2-5.8-5.2c-4.5,0-6.2,1-6.2,7.2c0,5.4,1.1,7.3,4.7,7.3
			c2.2,0,5,0,7.1-0.8v-2.2c-2,0.3-3.5,0.3-5.8,0.3c-2.1,0-2.9-0.4-2.9-3.3h5.1C103.8,26.5,105.1,25.4,105.1,23z M96.1,24.1
			c0-3.6,0.9-3.6,3.3-3.6c2.2,0,2.6,0.3,2.6,2.5c0,0.8-0.4,1.2-1.4,1.2H96.1z"/>
		<path id="XMLID_198_" class="st0" d="M116.8,17.7c-2.7,0-4.8,0.2-6.7,0.9v2c1.7-0.1,4.8-0.3,6.3-0.3c1.3,0,2,0.4,2,1.9
			c0,0,0,1.2,0,1.2c0,0-4.8,0-4.8,0c-2.8,0-4,1.7-4,3.8v1.5c0,2,1.4,3.7,3.9,3.7c2.3,0,4.8-1.6,4.9-1.8l0.7,1.6h2.4V22.1
			C121.6,18.8,119.6,17.7,116.8,17.7z M118.4,28.6c0,0-2.5,1.2-4.3,1.2c-0.8,0-1.4-0.2-1.4-1.5v-0.9c0-0.7,0.3-1.5,1.3-1.6l4.4-0.3
			V28.6z"/>
		<path id="XMLID_197_" class="st0" d="M135,17.7c-2.2,0-3.4,0.9-4.8,1.8l-0.7-1.6H127v14.3h3.1V21.7c1.5-0.9,2.4-1.3,4.1-1.3
			c1.1,0,1.9,0.6,1.9,2.2v9.7h3.1v-9.7C139.3,20,138.1,17.7,135,17.7z"/>
		<polygon id="XMLID_196_" class="st0" points="160.2,15.5 155,29.3 149.9,15.5 147.1,15.5 145.7,32.6 147.7,32.6 148.9,19.1 
			154,32.6 156.1,32.6 161.2,19.1 162.3,32.6 164.3,32.6 162.9,15.5 		"/>
		<path id="XMLID_193_" class="st0" d="M181.1,22.9c0-4.7-2.1-5.1-5.5-5.1c-4.4,0-6.2,0.8-6.2,7.2c0,5.6,1.1,7.3,4.7,7.3
			c2.2,0,4.5-0.1,6.7-0.8v-1.5c-2,0.3-4.3,0.3-6.7,0.3c-2.1,0-2.7-0.8-2.7-4.2h6C180,26.2,181.1,25,181.1,22.9z M175.7,19.9
			c2.9,0,3.4,0.2,3.4,3.1c0,0.9-0.5,1.3-1.7,1.3h-6C171.4,19.9,172.6,19.9,175.7,19.9z"/>
		<path id="XMLID_190_" class="st0" d="M196,18.8c-1.7-0.7-4.1-1.1-5.3-1.1c-4.1,0-4.7,3.8-4.7,7.4c0,3.3,0.8,7.2,4.7,7.2
			c1.8,0,4.6-1.2,5.3-1.7l0.5,1.6h1.4v-18h-2V18.8z M196,29.2c-1.5,0.6-3.1,1.2-5.3,1.2c-1.8,0-2.7-1.7-2.7-5.2c0-4.4,1-5.4,2.7-5.4
			c2.1,0,3.4,0.2,5.3,0.7V29.2z"/>
		<rect id="XMLID_189_" x="204.1" y="18" class="st0" width="2" height="14.3"/>
		<path id="XMLID_186_" class="st0" d="M217.6,17.9c-4.7,0-6.3,1.6-6.3,7.5c0,5.1,1.5,7.1,6.3,7.1c4.8,0,6.3-1.8,6.3-7.1
			C223.9,19.7,222.4,17.9,217.6,17.9z M217.6,30.4c-2.8,0-4.3-0.3-4.3-5.1c0-5.1,1.3-5.5,4.3-5.5c3.1,0,4.3,0.4,4.3,5.5
			C221.9,30,220.5,30.4,217.6,30.4z"/>
		<path id="XMLID_185_" class="st0" d="M236.6,24.2h-4.3c-1,0-1.7-0.1-1.7-1.5v-1.2c0-0.9,0-1.6,1.7-1.6h7v-1.5
			c-1.4-0.1-5.6-0.4-7-0.4c-2.8,0-3.7,1.3-3.7,3.6v1.2c0,2.8,1.2,3.5,3.7,3.5h4.3c1.2,0,1.5,0.5,1.5,1.5V29c0,1.6-1.5,1.5-1.5,1.5
			h-7.4v1.5c1,0.1,6.1,0.5,7.4,0.5c1.7,0,3.5-0.5,3.5-3.4v-1.3C240.1,25.6,239,24.2,236.6,24.2z"/>
	</g>
</g>
<g id="XMLID_1806_">
	<g id="XMLID_81_">
		<path id="XMLID_91_" class="st0" d="M32.3,20.4h3.2c-1.4-5.3-6.2-9.2-11.9-9.2c-0.6,0-1.2,0-1.8,0.1v3.1c0.6-0.1,1.2-0.2,1.8-0.2
			C27.6,14.2,31.1,16.8,32.3,20.4z"/>
		<path id="XMLID_90_" class="st0" d="M41.7,20.4C40.5,11.8,33,5.2,24,5.2c-1.5,0-2.9,0.2-4.3,0.5l0.1,2.8C21,8.1,22.3,8,23.6,8
			c7.5,0,13.8,5.4,15.2,12.4H41.7z"/>
		<path id="XMLID_89_" class="st0" d="M24,2.4c10.6,0,19.3,7.9,20.6,18.1h2.4C45.4,8.9,35.5,0,23.6,0c-2.9,0-5.7,0.5-8.3,1.5
			l2.6,1.8C19.8,2.7,21.8,2.4,24,2.4z"/>
		<path id="XMLID_88_" class="st0" d="M23.6,17.4c-0.8,0-1.6,0.2-2.3,0.5l0.9,2.6h6.6C27.8,18.6,25.8,17.4,23.6,17.4z"/>
		<path id="XMLID_87_" class="st0" d="M17.9,35.5l1.1,2.2l-0.2,0.5l-0.8,1.7h3.5h8.7h2.6h0h2.5h0.9H37h3.4c1.3-1.3,2.4-2.8,3.4-4.3
			h-3.2h-3.7h-3.5h-7.4h-4.6H17.9z"/>
		<path id="XMLID_86_" class="st0" d="M32.3,32.1h1h3.2h1.2h1.8h3.2h0.3h0h1.9h0.6c0.4-1,0.8-2.1,1-3.3h-2.6h-3h-2.8h-3.5h-3.5h-4.8
			h-0.9v0.4v1.8v1.1h1.5H32.3z"/>
		<path id="XMLID_85_" class="st0" d="M44.7,23.4h-2.8h-2.8h-3.2h-3.1h-3.2H23l0.5,1.7h5.8h3.3h3.1H39h2.8h2.8h2.4
			c0-0.6,0.1-1.1,0.1-1.7c0,0,0,0,0,0H44.7z"/>
		<polygon id="XMLID_84_" class="st0" points="22.2,32.1 22.2,32 22.2,29.8 22.2,29.3 22.2,28.1 21,28.1 18.7,19.9 18.1,18 18,17.5 
			15.6,18.8 14.7,19.2 15.2,19.5 17.3,20.9 17.5,28.6 17.5,30.4 17.5,31.2 17.6,32.1 20.3,32.1 		"/>
		<path id="XMLID_83_" class="st0" d="M36.8,42.8H30h-9.4v0.6v1.9v1.4c1,0.1,2,0.2,3,0.2c3.9,0,7.6-1,10.9-2.7
			C35.3,43.8,36.1,43.3,36.8,42.8z"/>
		<path id="XMLID_82_" class="st0" d="M2.9,27.1l-2,2.8c0.5,1.8,1.3,3.5,2.2,5.1c3,5.2,7.9,9.2,13.8,10.9v-1.5v-0.8v-1.1v0l-1.8-0.7
			v-0.2l0-0.9v0l0-2.2l0-1.1l0-1.1l0-4l-1.7,1.4l-0.7,0.6l-1.1,0.9l-0.3,0.3l-0.3,0.2v3.3v0.1l-2.7-1.5l0-1.1v0v-0.1v-1.6l0,0l0-3.1
			l0.1,0.1l1.6,0.8l0.7-0.6l0.4-0.4l2-1.7l1.3-1.1v-0.1l0-3.9l0-2.4l-0.1,0l-1.6-1.1l-1.2-0.8l-2.3-1.6l4-2.3l4.9-2.8v-1.4v-1.9
			l-0.2,0.2l-1.2,0.9v0v-0.9V9.6V9.2V9l0-2.2l0,0L13.9,5l-2.4-1.6C7.2,5.9,3.8,9.8,1.8,14.4l2.5,2l0.3,0.2L5.8,16l0.1,5.2l-2.3-1.7
			l-2.8-2c-0.5,1.9-0.8,3.9-0.8,6c0,0.7,0,1.4,0.1,2.1L2.9,27.1z"/>
	</g>
</g>
</svg>
